#!OML:ASF F:\VICON\USERDATA\INSTALL\rory3\rory3.ASF
:FULLY-SPECIFIED
:DEGREES
627
root 1.27186 31.5149 -1.70272 -166.33 -1.04682 178.931
lowerback 12.7401 0.0904748 -5.36148
upperback 1.45473 -0.854641 -0.488598
thorax -5.55209 -0.389681 2.66833
lowerneck -22.3672 -1.60365 -10.284
upperneck 32.7439 3.41067 1.23088
head 15.0877 0.937751 3.10015
rclavicle 1.39149e-015 -1.23246e-014
rhumerus -15.4761 26.7114 -88.5241
rradius 91.5622
rwrist 42.9558
rhand -30.0194 4.93022
rfingers 7.12502
rthumb -3.33618 -25.0234
lclavicle 1.39149e-015 -1.23246e-014
lhumerus 23.4951 -23.1509 78.3099
lradius 83.8953
lwrist -38.1581
lhand -22.5475 38.9692
lfingers 7.12502
lthumb 3.8801 68.9136
rfemur -30.0103 -5.60895 18.4288
rtibia 34.6368
rfoot -1.53656 -7.67533
rtoes -1.05164
lfemur -48.5313 4.78748 -29.2844
ltibia 56.3131
lfoot -23.8663 0.827066
ltoes 0.228068
628
root 1.26895 31.577 -1.73075 -166.426 -0.905315 179.124
lowerback 12.6193 0.0607538 -5.61045
upperback 1.39256 -0.896613 -0.249635
thorax -5.53933 -0.39645 3.06658
lowerneck -22.2269 -1.58681 -10.4464
upperneck 32.7548 3.51206 1.20229
head 15.0557 0.963211 3.13344
rclavicle -8.74653e-015 -3.97569e-015
rhumerus -16.0809 27.1468 -88.2981
rradius 92.4469
rwrist 42.6945
rhand -30.5883 5.39104
rfingers 7.12502
rthumb -3.8856 -24.5533
lclavicle -8.74653e-015 -3.97569e-015
lhumerus 22.6215 -23.0143 78.8141
lradius 83.7069
lwrist -38.4439
lhand -23.1508 39.1729
lfingers 7.12502
lthumb 3.2975 69.1271
rfemur -30.3788 -5.63874 18.5419
rtibia 36.0738
rfoot -2.54695 -7.43969
rtoes -1.82832
lfemur -47.8328 4.90017 -29.0279
ltibia 55.3878
lfoot -23.5412 0.857703
ltoes 0.327923
629
root 1.26795 31.6411 -1.7539 -166.615 -0.734583 179.141
lowerback 12.6644 -0.00604702 -5.69285
upperback 1.38717 -1.01075 -0.354247
thorax -5.5604 -0.452859 3.0228
lowerneck -22.3599 -1.57968 -10.3876
upperneck 32.8508 3.44449 1.36948
head 15.1273 0.95606 3.18617
rclavicle -8.54774e-015 -1.39149e-014
rhumerus -16.5491 27.4141 -88.484
rradius 93.3728
rwrist 42.4971
rhand -30.7136 5.79324
rfingers 7.12502
rthumb -4.00654 -24.1488
lclavicle -8.54774e-015 -1.39149e-014
lhumerus 21.8607 -22.9514 78.8815
lradius 83.5975
lwrist -38.7274
lhand -23.4668 39.0375
lfingers 7.12502
lthumb 2.9923 68.9962
rfemur -30.6587 -5.57621 18.4396
rtibia 37.5145
rfoot -3.50257 -7.06936
rtoes -1.49494
lfemur -47.0191 5.05625 -28.9837
ltibia 54.4325
lfoot -23.1924 0.931728
ltoes -0.0520133
630
root 1.2704 31.7031 -1.76737 -166.869 -0.615111 179.132
lowerback 12.989 -0.00556208 -5.72908
upperback 1.30941 -1.05534 -0.513337
thorax -5.8223 -0.468239 2.8894
lowerneck -22.1546 -1.59246 -10.1435
upperneck 32.6552 3.2431 1.38329
head 15.0031 0.906255 3.10037
rclavicle 6.36111e-015 1.31198e-014
rhumerus -17.4241 27.2755 -88.8254
rradius 94.3893
rwrist 42.6292
rhand -31.0895 6.461
rfingers 7.12502
rthumb -4.36957 -23.4739
lclavicle 6.36111e-015 1.31198e-014
lhumerus 21.0589 -23.184 78.8792
lradius 83.542
lwrist -38.904
lhand -23.8321 39.2659
lfingers 7.12502
lthumb 2.63952 69.2293
rfemur -30.906 -5.47491 18.3326
rtibia 38.9128
rfoot -4.35072 -6.83071
rtoes -1.06138
lfemur -46.1657 5.1701 -28.9236
ltibia 53.4663
lfoot -22.818 0.935636
ltoes -0.167213
631
root 1.27131 31.7677 -1.78852 -166.955 -0.499229 179.288
lowerback 12.8896 0.0235241 -5.86835
upperback 1.27181 -1.01561 -0.386139
thorax -5.80563 -0.440586 3.09402
lowerneck -22.0164 -1.68415 -10.1979
upperneck 32.5242 3.14008 1.24909
head 14.925 0.840581 3.02667
rclavicle 1.19271e-015 0
rhumerus -18.1523 27.2015 -88.7244
rradius 95.3107
rwrist 43.0016
rhand -31.9841 7.22038
rfingers 7.12502
rthumb -5.23335 -22.695
lclavicle 1.19271e-015 0
lhumerus 20.3723 -23.2255 79.2579
lradius 83.4131
lwrist -39.1125
lhand -24.214 39.3661
lfingers 7.12502
lthumb 2.27064 69.3338
rfemur -31.3097 -5.5011 18.4645
rtibia 40.2748
rfoot -5.04428 -6.6898
rtoes -2.1581
lfemur -45.4679 5.24838 -28.6889
ltibia 52.4977
lfoot -22.4873 0.923488
ltoes -0.235068
632
root 1.26453 31.8412 -1.82931 -166.83 -0.365411 179.447
lowerback 12.2801 -0.023158 -5.71123
upperback 1.24166 -1.00631 -0.442135
thorax -5.5021 -0.444263 2.9338
lowerneck -22.1687 -1.76046 -10.2138
upperneck 32.7583 2.98788 1.48989
head 15.0699 0.799918 3.11392
rclavicle 4.57205e-015 -4.37326e-015
rhumerus -17.9667 27.3788 -88.6927
rradius 95.7178
rwrist 42.7589
rhand -32.184 7.23747
rfingers 7.12502
rthumb -5.42636 -22.6731
lclavicle 4.57205e-015 -4.37326e-015
lhumerus 19.6883 -23.3396 79.4219
lradius 83.2326
lwrist -39.3212
lhand -24.6977 39.5613
lfingers 7.12502
lthumb 1.80349 69.5334
rfemur -31.8017 -5.77092 18.6026
rtibia 41.5791
rfoot -5.83911 -6.1382
rtoes -3.61229
lfemur -44.8937 5.36251 -28.5395
ltibia 51.534
lfoot -22.2254 0.908538
ltoes -0.136404
